<?xml version="1.0" encoding="utf-8"?>
<!-- Generator: Adobe Illustrator 26.5.3, SVG Export Plug-In . SVG Version: 6.00 Build 0)  -->
<svg version="1.1" id="Layer_1" xmlns="http://www.w3.org/2000/svg" xmlns:xlink="http://www.w3.org/1999/xlink" x="0px" y="0px"
	 viewBox="0 0 1265 308" style="enable-background:new 0 0 1265 308;" xml:space="preserve">
<style type="text/css">
	.st0{fill:#FFFFFF;}
	.st1{fill:#FF0000;}
</style>
<path class="st0" d="M822.7,295.4c-6.5,0-12.5-1-18.1-3.1c-5.5-2.2-10.3-5.2-14.4-9.1c-4.1-3.9-7.3-8.5-9.6-13.8
	c-2.2-5.3-3.4-11.1-3.4-17.4s1.1-12.1,3.4-17.4c2.3-5.3,5.5-9.9,9.6-13.8c4.2-3.9,9-6.9,14.5-9c5.5-2.2,11.6-3.2,18.1-3.2
	c7.3,0,13.8,1.3,19.7,3.8c5.9,2.5,10.9,6.2,14.9,11L844.9,235c-2.9-3.3-6.1-5.7-9.6-7.3c-3.5-1.7-7.4-2.5-11.5-2.5
	c-3.9,0-7.5,0.6-10.8,1.9c-3.3,1.3-6.1,3.1-8.5,5.5c-2.4,2.4-4.3,5.2-5.6,8.5c-1.3,3.3-1.9,6.9-1.9,10.9s0.6,7.6,1.9,10.9
	c1.4,3.3,3.2,6.1,5.6,8.5s5.2,4.2,8.5,5.5c3.3,1.3,6.9,1.9,10.8,1.9c4.2,0,8-0.8,11.5-2.4c3.5-1.7,6.7-4.2,9.6-7.6l12.5,11.5
	c-4,4.9-9,8.6-14.9,11.2C836.7,294.2,830.1,295.4,822.7,295.4z M891.5,294v-68.2h-26.9V210h73.2v15.8H911V294H891.5z M948.3,294v-84
	h19.4v84H948.3z M1028.5,295.4c-6.6,0-12.8-1.1-18.5-3.2c-5.6-2.2-10.5-5.2-14.6-9.1c-4.1-3.9-7.3-8.5-9.6-13.8
	c-2.2-5.3-3.4-11-3.4-17.3c0-6.2,1.1-12,3.4-17.3c2.3-5.3,5.6-9.9,9.7-13.8c4.2-3.9,9-7,14.6-9.1c5.6-2.2,11.7-3.2,18.2-3.2
	c6.6,0,12.7,1.1,18.2,3.2c5.6,2.2,10.4,5.2,14.5,9.1c4.2,3.9,7.4,8.5,9.7,13.8c2.3,5.2,3.5,11,3.5,17.3c0,6.2-1.2,12-3.5,17.4
	c-2.3,5.3-5.6,9.9-9.7,13.8c-4.1,3.8-8.9,6.8-14.5,9C1041.1,294.4,1035.1,295.4,1028.5,295.4z M1028.4,278.9c3.8,0,7.2-0.6,10.3-1.9
	c3.2-1.3,6-3.1,8.4-5.5s4.2-5.2,5.5-8.5c1.4-3.3,2-6.9,2-10.9s-0.7-7.6-2-10.9c-1.3-3.3-3.1-6.1-5.5-8.5c-2.3-2.4-5.1-4.2-8.3-5.5
	c-3.2-1.3-6.7-1.9-10.4-1.9s-7.2,0.6-10.4,1.9c-3.1,1.3-5.9,3.1-8.3,5.5c-2.4,2.4-4.3,5.2-5.6,8.5c-1.3,3.3-1.9,6.9-1.9,10.9
	c0,3.9,0.6,7.6,1.9,10.9c1.4,3.3,3.2,6.1,5.5,8.5c2.4,2.4,5.2,4.2,8.4,5.5S1024.6,278.9,1028.4,278.9z M1088.9,294v-84h16.1
	l49.6,60.5h-7.8V210h19.2v84h-16l-49.7-60.5h7.8V294H1088.9z M1213.5,295.4c-6.7,0-13.2-0.9-19.3-2.6c-6.2-1.8-11.1-4.2-14.9-7.1
	l6.6-14.6c3.6,2.6,7.8,4.7,12.7,6.4c5,1.6,10,2.4,15,2.4c3.8,0,6.9-0.4,9.2-1.1c2.4-0.8,4.2-1.9,5.3-3.2c1.1-1.4,1.7-2.9,1.7-4.7
	c0-2.2-0.9-4-2.6-5.3c-1.8-1.4-4.1-2.4-7-3.2c-2.9-0.9-6.1-1.7-9.6-2.4c-3.4-0.8-6.9-1.8-10.4-2.9c-3.4-1.1-6.6-2.6-9.5-4.3
	s-5.2-4.1-7.1-7c-1.8-2.9-2.6-6.6-2.6-11c0-4.8,1.3-9.2,3.8-13.1c2.6-4,6.6-7.2,11.8-9.5c5.3-2.4,11.9-3.6,19.8-3.6
	c5.3,0,10.5,0.6,15.6,1.9c5.1,1.2,9.6,3,13.6,5.5l-6,14.8c-3.9-2.2-7.8-3.9-11.8-4.9c-3.9-1.1-7.8-1.7-11.5-1.7s-6.8,0.4-9.2,1.3
	c-2.4,0.9-4.1,2-5.2,3.5c-1,1.4-1.6,3-1.6,4.8c0,2.2,0.9,3.9,2.6,5.3c1.8,1.3,4.1,2.3,7,3.1s6,1.6,9.5,2.4c3.5,0.8,7,1.7,10.4,2.8
	c3.5,1,6.7,2.4,9.6,4.2c2.9,1.8,5.2,4.1,7,7c1.8,2.9,2.8,6.5,2.8,10.9c0,4.7-1.3,9-4,13c-2.6,3.9-6.6,7.1-11.9,9.5
	C1228.1,294.2,1221.5,295.4,1213.5,295.4z"/>
<path class="st0" d="M112.5,294l37.4-84h19.2l37.6,84h-20.4l-30.7-74.2h7.7L132.4,294H112.5z M131.2,276l5.2-14.8h43.2l5.3,14.8
	H131.2z M222.6,294v-68.2h-26.9V210h73.2v15.8H242V294H222.6z M304,294v-68.2h-26.9V210h73.2v15.8h-26.9V294H304z M357.2,294v-84
	h36.4c7.5,0,14,1.2,19.4,3.7c5.4,2.4,9.6,5.9,12.6,10.4s4.4,10,4.4,16.3c0,6.2-1.5,11.6-4.4,16.2c-3,4.5-7.2,7.9-12.6,10.3
	s-11.9,3.6-19.4,3.6H368l8.6-8.5V294H357.2z M410.6,294l-21-30.5h20.8l21.2,30.5H410.6z M376.6,264.2l-8.6-9.1h24.5
	c6,0,10.5-1.3,13.4-3.8c3-2.6,4.4-6.2,4.4-10.8c0-4.6-1.5-8.2-4.4-10.8c-3-2.6-7.4-3.8-13.4-3.8H368l8.6-9.2V264.2z"/>
<path class="st1" d="M443.9,294L575,0h67.2l131.5,294h-71.4L594.7,34.4h26.9L513.7,294H443.9z M509.5,231l18.1-51.7h151.2l18.5,51.7
	H509.5z"/>
<path class="st0" d="M697.2,85.4v-84h19.4v68.2h42.1v15.8H697.2z"/>
<path class="st0" d="M34.5,35.3h40.4v15.1H34.5V35.3z M35.9,69.8h45.7v15.6h-65v-84h63.5V17H35.9V69.8z M124.7,86.9
	c-6.7,0-13.2-0.9-19.3-2.6c-6.2-1.8-11.1-4.2-14.9-7.1l6.6-14.6c3.6,2.6,7.8,4.7,12.7,6.4c5,1.6,10,2.4,15,2.4
	c3.8,0,6.9-0.4,9.2-1.1c2.4-0.8,4.2-1.9,5.3-3.2c1.1-1.4,1.7-2.9,1.7-4.7c0-2.2-0.9-4-2.6-5.3c-1.8-1.4-4.1-2.4-7-3.2
	c-2.9-0.9-6.1-1.7-9.6-2.4c-3.4-0.8-6.9-1.8-10.4-2.9c-3.4-1.1-6.6-2.6-9.5-4.3c-2.9-1.8-5.2-4.1-7.1-7c-1.8-2.9-2.6-6.6-2.6-11
	c0-4.8,1.3-9.2,3.8-13.1c2.6-4,6.6-7.2,11.8-9.5c5.3-2.4,11.9-3.6,19.8-3.6c5.3,0,10.5,0.6,15.6,1.9c5.1,1.2,9.6,3,13.6,5.5l-6,14.8
	c-3.9-2.2-7.8-3.9-11.8-4.9c-3.9-1.1-7.8-1.7-11.5-1.7c-3.8,0-6.8,0.4-9.2,1.3c-2.4,0.9-4.1,2-5.2,3.5c-1,1.4-1.6,3-1.6,4.8
	c0,2.2,0.9,3.9,2.6,5.3c1.8,1.3,4.1,2.3,7,3.1c2.9,0.8,6,1.6,9.5,2.4c3.5,0.8,7,1.7,10.4,2.8c3.5,1,6.7,2.4,9.6,4.2
	c2.9,1.8,5.2,4.1,7,7c1.8,2.9,2.8,6.5,2.8,10.9c0,4.7-1.3,9-4,13s-6.6,7.1-11.9,9.5C139.3,85.7,132.7,86.9,124.7,86.9z M201.3,86.9
	c-6.7,0-13.2-0.9-19.3-2.6c-6.2-1.8-11.1-4.2-14.9-7.1l6.6-14.6c3.6,2.6,7.8,4.7,12.7,6.4c5,1.6,10,2.4,15,2.4
	c3.8,0,6.9-0.4,9.2-1.1c2.4-0.8,4.2-1.9,5.3-3.2c1.1-1.4,1.7-2.9,1.7-4.7c0-2.2-0.9-4-2.6-5.3c-1.8-1.4-4.1-2.4-7-3.2
	c-2.9-0.9-6.1-1.7-9.6-2.4c-3.4-0.8-6.9-1.8-10.4-2.9c-3.4-1.1-6.6-2.6-9.5-4.3s-5.2-4.1-7.1-7c-1.8-2.9-2.6-6.6-2.6-11
	c0-4.8,1.3-9.2,3.8-13.1c2.6-4,6.6-7.2,11.8-9.5c5.3-2.4,11.9-3.6,19.8-3.6c5.3,0,10.5,0.6,15.6,1.9c5.1,1.2,9.6,3,13.6,5.5l-6,14.8
	c-3.9-2.2-7.8-3.9-11.8-4.9c-3.9-1.1-7.8-1.7-11.5-1.7s-6.8,0.4-9.2,1.3c-2.4,0.9-4.1,2-5.2,3.5c-1,1.4-1.6,3-1.6,4.8
	c0,2.2,0.9,3.9,2.6,5.3c1.8,1.3,4.1,2.3,7,3.1c2.9,0.8,6,1.6,9.5,2.4c3.5,0.8,7,1.7,10.4,2.8c3.5,1,6.7,2.4,9.6,4.2
	c2.9,1.8,5.2,4.1,7,7c1.8,2.9,2.8,6.5,2.8,10.9c0,4.7-1.3,9-4,13s-6.6,7.1-11.9,9.5C215.9,85.7,209.3,86.9,201.3,86.9z M268.1,35.3
	h40.4v15.1h-40.4V35.3z M269.5,69.8h45.7v15.6h-65v-84h63.5V17h-44.2V69.8z M330.7,85.4v-84h16.1l49.6,60.5h-7.8V1.4h19.2v84h-16
	L342.1,25h7.8v60.5H330.7z M445,85.4V17.3h-26.9V1.4h73.2v15.8h-26.9v68.2H445z M501.8,85.4v-84h19.4v84H501.8z"/>
</svg>
