<svg width="1265" height="308" viewBox="0 0 1265 308" fill="none" xmlns="http://www.w3.org/2000/svg">
<path d="M822.735 295.44C816.255 295.44 810.215 294.4 804.615 292.32C799.095 290.16 794.295 287.12 790.215 283.2C786.135 279.28 782.935 274.68 780.615 269.4C778.375 264.12 777.255 258.32 777.255 252C777.255 245.68 778.375 239.88 780.615 234.6C782.935 229.32 786.135 224.72 790.215 220.8C794.375 216.88 799.215 213.88 804.735 211.8C810.255 209.64 816.295 208.56 822.855 208.56C830.135 208.56 836.695 209.84 842.535 212.4C848.455 214.88 853.415 218.56 857.415 223.44L844.935 234.96C842.055 231.68 838.855 229.24 835.335 227.64C831.815 225.96 827.975 225.12 823.815 225.12C819.895 225.12 816.295 225.76 813.015 227.04C809.735 228.32 806.895 230.16 804.495 232.56C802.095 234.96 800.215 237.8 798.855 241.08C797.575 244.36 796.935 248 796.935 252C796.935 256 797.575 259.64 798.855 262.92C800.215 266.2 802.095 269.04 804.495 271.44C806.895 273.84 809.735 275.68 813.015 276.96C816.295 278.24 819.895 278.88 823.815 278.88C827.975 278.88 831.815 278.08 835.335 276.48C838.855 274.8 842.055 272.28 844.935 268.92L857.415 280.44C853.415 285.32 848.455 289.04 842.535 291.6C836.695 294.16 830.095 295.44 822.735 295.44ZM891.543 294V225.84H864.663V210H937.863V225.84H910.983V294H891.543ZM948.323 294V210H967.763V294H948.323ZM1028.5 295.44C1021.86 295.44 1015.7 294.36 1010.02 292.2C1004.42 290.04 999.538 287 995.378 283.08C991.298 279.16 988.098 274.56 985.778 269.28C983.538 264 982.418 258.24 982.418 252C982.418 245.76 983.538 240 985.778 234.72C988.098 229.44 991.338 224.84 995.498 220.92C999.658 217 1004.54 213.96 1010.14 211.8C1015.74 209.64 1021.82 208.56 1028.38 208.56C1035.02 208.56 1041.1 209.64 1046.62 211.8C1052.22 213.96 1057.06 217 1061.14 220.92C1065.3 224.84 1068.54 229.44 1070.86 234.72C1073.18 239.92 1074.34 245.68 1074.34 252C1074.34 258.24 1073.18 264.04 1070.86 269.4C1068.54 274.68 1065.3 279.28 1061.14 283.2C1057.06 287.04 1052.22 290.04 1046.62 292.2C1041.1 294.36 1035.06 295.44 1028.5 295.44ZM1028.38 278.88C1032.14 278.88 1035.58 278.24 1038.7 276.96C1041.9 275.68 1044.7 273.84 1047.1 271.44C1049.5 269.04 1051.34 266.2 1052.62 262.92C1053.98 259.64 1054.66 256 1054.66 252C1054.66 248 1053.98 244.36 1052.62 241.08C1051.34 237.8 1049.5 234.96 1047.1 232.56C1044.78 230.16 1042.02 228.32 1038.82 227.04C1035.62 225.76 1032.14 225.12 1028.38 225.12C1024.62 225.12 1021.14 225.76 1017.94 227.04C1014.82 228.32 1012.06 230.16 1009.66 232.56C1007.26 234.96 1005.38 237.8 1004.02 241.08C1002.74 244.36 1002.1 248 1002.1 252C1002.1 255.92 1002.74 259.56 1004.02 262.92C1005.38 266.2 1007.22 269.04 1009.54 271.44C1011.94 273.84 1014.74 275.68 1017.94 276.96C1021.14 278.24 1024.62 278.88 1028.38 278.88ZM1088.95 294V210H1105.03L1154.59 270.48H1146.79V210H1165.99V294H1150.03L1100.35 233.52H1108.15V294H1088.95ZM1213.46 295.44C1206.74 295.44 1200.3 294.56 1194.14 292.8C1187.98 290.96 1183.02 288.6 1179.26 285.72L1185.86 271.08C1189.46 273.64 1193.7 275.76 1198.58 277.44C1203.54 279.04 1208.54 279.84 1213.58 279.84C1217.42 279.84 1220.5 279.48 1222.82 278.76C1225.22 277.96 1226.98 276.88 1228.1 275.52C1229.22 274.16 1229.78 272.6 1229.78 270.84C1229.78 268.6 1228.9 266.84 1227.14 265.56C1225.38 264.2 1223.06 263.12 1220.18 262.32C1217.3 261.44 1214.1 260.64 1210.58 259.92C1207.14 259.12 1203.66 258.16 1200.14 257.04C1196.7 255.92 1193.54 254.48 1190.66 252.72C1187.78 250.96 1185.42 248.64 1183.58 245.76C1181.82 242.88 1180.94 239.2 1180.94 234.72C1180.94 229.92 1182.22 225.56 1184.78 221.64C1187.42 217.64 1191.34 214.48 1196.54 212.16C1201.82 209.76 1208.42 208.56 1216.34 208.56C1221.62 208.56 1226.82 209.2 1231.94 210.48C1237.06 211.68 1241.58 213.52 1245.5 216L1239.5 230.76C1235.58 228.52 1231.66 226.88 1227.74 225.84C1223.82 224.72 1219.98 224.16 1216.22 224.16C1212.46 224.16 1209.38 224.6 1206.98 225.48C1204.58 226.36 1202.86 227.52 1201.82 228.96C1200.78 230.32 1200.26 231.92 1200.26 233.76C1200.26 235.92 1201.14 237.68 1202.9 239.04C1204.66 240.32 1206.98 241.36 1209.86 242.16C1212.74 242.96 1215.9 243.76 1219.34 244.56C1222.86 245.36 1226.34 246.28 1229.78 247.32C1233.3 248.36 1236.5 249.76 1239.38 251.52C1242.26 253.28 1244.58 255.6 1246.34 258.48C1248.18 261.36 1249.1 265 1249.1 269.4C1249.1 274.12 1247.78 278.44 1245.14 282.36C1242.5 286.28 1238.54 289.44 1233.26 291.84C1228.06 294.24 1221.46 295.44 1213.46 295.44Z" fill="white"/>
<path d="M112.482 294L149.922 210H169.122L206.682 294H186.282L155.562 219.84H163.242L132.402 294H112.482ZM131.202 276L136.362 261.24H179.562L184.842 276H131.202ZM222.597 294V225.84H195.717V210H268.917V225.84H242.037V294H222.597ZM303.976 294V225.84H277.096V210H350.296V225.84H323.416V294H303.976ZM357.156 294V210H393.516C401.036 210 407.516 211.24 412.956 213.72C418.396 216.12 422.596 219.6 425.556 224.16C428.516 228.72 429.996 234.16 429.996 240.48C429.996 246.72 428.516 252.12 425.556 256.68C422.596 261.16 418.396 264.6 412.956 267C407.516 269.4 401.036 270.6 393.516 270.6H367.956L376.596 262.08V294H357.156ZM410.556 294L389.556 263.52H410.316L431.556 294H410.556ZM376.596 264.24L367.956 255.12H392.436C398.436 255.12 402.916 253.84 405.876 251.28C408.836 248.64 410.316 245.04 410.316 240.48C410.316 235.84 408.836 232.24 405.876 229.68C402.916 227.12 398.436 225.84 392.436 225.84H367.956L376.596 216.6V264.24Z" fill="white"/>
<path d="M443.939 294L574.979 -2.00272e-05H642.179L773.639 294H702.239L594.719 34.44H621.599L513.659 294H443.939ZM509.459 231L527.519 179.34H678.719L697.199 231H509.459Z" fill="#DD4544"/>
<path d="M674.749 123V39H694.189V107.16H736.309V123H674.749Z" fill="white"/>
<path d="M53.0744 72.84L93.5144 72.84V87.96H53.0744L53.0744 72.84ZM54.5144 107.4H100.234V123L35.1944 123L35.1944 39L98.6744 39V54.6L54.5144 54.6L54.5144 107.4ZM143.302 124.44C136.582 124.44 130.142 123.56 123.982 121.8C117.822 119.96 112.862 117.6 109.102 114.72L115.702 100.08C119.302 102.64 123.542 104.76 128.422 106.44C133.382 108.04 138.382 108.84 143.422 108.84C147.262 108.84 150.342 108.48 152.662 107.76C155.062 106.96 156.822 105.88 157.942 104.52C159.062 103.16 159.622 101.6 159.622 99.84C159.622 97.6 158.742 95.84 156.982 94.56C155.222 93.2 152.902 92.12 150.022 91.32C147.142 90.44 143.942 89.64 140.422 88.92C136.982 88.12 133.502 87.16 129.982 86.04C126.542 84.92 123.382 83.48 120.502 81.72C117.622 79.96 115.262 77.64 113.422 74.76C111.662 71.88 110.782 68.2 110.782 63.72C110.782 58.92 112.062 54.56 114.622 50.64C117.262 46.64 121.182 43.48 126.382 41.16C131.662 38.76 138.262 37.56 146.182 37.56C151.462 37.56 156.662 38.2 161.782 39.48C166.902 40.68 171.422 42.52 175.342 45L169.342 59.76C165.422 57.52 161.502 55.88 157.582 54.84C153.662 53.72 149.822 53.16 146.062 53.16C142.302 53.16 139.222 53.6 136.822 54.48C134.422 55.36 132.702 56.52 131.662 57.96C130.622 59.32 130.102 60.92 130.102 62.76C130.102 64.92 130.982 66.68 132.742 68.04C134.502 69.32 136.822 70.36 139.702 71.16C142.582 71.96 145.742 72.76 149.182 73.56C152.702 74.36 156.182 75.28 159.622 76.32C163.142 77.36 166.342 78.76 169.222 80.52C172.102 82.28 174.422 84.6 176.182 87.48C178.022 90.36 178.942 94 178.942 98.4C178.942 103.12 177.622 107.44 174.982 111.36C172.342 115.28 168.382 118.44 163.102 120.84C157.902 123.24 151.302 124.44 143.302 124.44ZM219.826 124.44C213.106 124.44 206.666 123.56 200.506 121.8C194.346 119.96 189.386 117.6 185.626 114.72L192.226 100.08C195.826 102.64 200.066 104.76 204.946 106.44C209.906 108.04 214.906 108.84 219.946 108.84C223.786 108.84 226.866 108.48 229.186 107.76C231.586 106.96 233.346 105.88 234.466 104.52C235.586 103.16 236.146 101.6 236.146 99.84C236.146 97.6 235.266 95.84 233.506 94.56C231.746 93.2 229.426 92.12 226.546 91.32C223.666 90.44 220.466 89.64 216.946 88.92C213.506 88.12 210.026 87.16 206.506 86.04C203.066 84.92 199.906 83.48 197.026 81.72C194.146 79.96 191.786 77.64 189.946 74.76C188.186 71.88 187.306 68.2 187.306 63.72C187.306 58.92 188.586 54.56 191.146 50.64C193.786 46.64 197.706 43.48 202.906 41.16C208.186 38.76 214.786 37.56 222.706 37.56C227.986 37.56 233.186 38.2 238.306 39.48C243.426 40.68 247.946 42.52 251.866 45L245.866 59.76C241.946 57.52 238.026 55.88 234.106 54.84C230.186 53.72 226.346 53.16 222.586 53.16C218.826 53.16 215.746 53.6 213.346 54.48C210.946 55.36 209.226 56.52 208.186 57.96C207.146 59.32 206.626 60.92 206.626 62.76C206.626 64.92 207.506 66.68 209.266 68.04C211.026 69.32 213.346 70.36 216.226 71.16C219.106 71.96 222.266 72.76 225.706 73.56C229.226 74.36 232.706 75.28 236.146 76.32C239.666 77.36 242.866 78.76 245.746 80.52C248.626 82.28 250.946 84.6 252.706 87.48C254.546 90.36 255.466 94 255.466 98.4C255.466 103.12 254.146 107.44 251.506 111.36C248.866 115.28 244.906 118.44 239.626 120.84C234.426 123.24 227.826 124.44 219.826 124.44ZM286.629 72.84H327.069V87.96L286.629 87.96V72.84ZM288.069 107.4L333.789 107.4V123L268.749 123V39L332.229 39V54.6L288.069 54.6V107.4ZM349.257 123V39H365.337L414.897 99.48H407.097V39H426.297V123H410.337L360.657 62.52H368.457V123H349.257ZM463.571 123V54.84L436.691 54.84V39L509.891 39V54.84L483.011 54.84V123L463.571 123ZM520.351 123V39H539.791V123H520.351Z" fill="white"/>
</svg>
